<svg width="16" height="16" viewBox="0 0 16 16" xmlns="http://www.w3.org/2000/svg">
  <title>
    Artboard
  </title>
  <path d="M13.802 13.504c-.31-.78-1.278-1.53-1.278-2.103 0-.783.398-1.217.398-2.274 0-.785-.382-1.636-.957-2.218-.11-.113-.225-.205-.356-.286.527.653.934 1.427.934 2.324 0 .996-.464 1.522-.464 2.44 0 .867 1.197 1.624 1.333 2.502-.19.173-.386.338-.59.492.024-.11.037-.22.037-.333 0-1.047-1.342-1.773-1.342-2.692 0-.92.57-1.45.57-2.627 0-.864-.41-1.738-1.044-2.296-.112-.098-.222-.177-.356-.246.6.716.945 1.367.945 2.353 0 1.107-.653 1.722-.653 2.808 0 1.085 1.316 1.69 1.316 2.7 0 .295-.104.577-.253.854-.292.172-.595.325-.91.46.27-.417.505-.845.505-1.315 0-1.09-1.293-1.597-1.293-2.716 0-1.117.794-1.737.794-2.973 0-.963-.478-1.83-1.174-2.366-.015-.01-.03-.022-.044-.033-.065-.048-.12.01-.073.068.492.615.755 1.236.755 2.155 0 1.13-.912 2.05-.912 3.145 0 1.293 1.225 1.662 1.225 2.722 0 .59-.408 1.116-.77 1.66-.258.073-.523.132-.793.178.394-.61.895-1.207.895-1.838 0-.978-.976-1.3-1.103-2.3-.018-.138-.128-.24-.28-.214-.198.036-.452.167-.85.167-.4 0-.653-.13-.852-.167-.15-.025-.26.076-.28.213-.126 1.002-1.102 1.323-1.102 2.3 0 .634.505 1.234.9 1.846-.27-.045-.534-.103-.792-.174-.362-.547-.775-1.076-.775-1.67 0-1.06 1.224-1.43 1.224-2.723 0-1.096-.912-2.014-.912-3.145 0-.92.263-1.54.756-2.155.046-.057-.008-.116-.074-.068l-.044.034c-.695.538-1.172 1.404-1.172 2.367 0 1.236.794 1.856.794 2.974 0 1.12-1.293 1.628-1.293 2.717 0 .477.243.912.517 1.334-.313-.13-.616-.28-.907-.45-.157-.286-.268-.577-.268-.883 0-1.01 1.316-1.614 1.316-2.7 0-1.085-.653-1.7-.653-2.808 0-.987.346-1.638.945-2.354-.134.07-.244.148-.357.246-.634.558-1.045 1.432-1.045 2.296 0 1.178.572 1.707.572 2.627 0 .92-1.342 1.645-1.342 2.692 0 .124.016.245.044.364-.208-.155-.41-.32-.6-.496.115-.89 1.336-1.652 1.336-2.527 0-.92-.464-1.445-.464-2.44 0-.898.405-1.672.934-2.325-.13.08-.245.173-.356.286-.576.582-.958 1.433-.958 2.218 0 1.057.397 1.49.397 2.275 0 .58-.986 1.34-1.286 2.128C1.33 12.595.66 11.448.3 10.17c.14-.02.29-.023.454-.005.118-.297.254-.585.408-.862-.408-.072-.745-.036-1.047.053-.035-.202-.062-.406-.08-.612.45-.166.94-.252 1.498-.058.54-.8 1.22-1.493 2.01-2.046-.766-.313-1.694-.24-2.487.268-.088-.532-.322-1.02-.66-1.4C1.447 2.31 4.46 0 8 0c3.557 0 6.572 2.327 7.612 5.536-.325.375-.55.853-.636 1.372-.793-.508-1.72-.58-2.486-.268.79.553 1.47 1.246 2.008 2.046.547-.19 1.026-.11 1.47.047-.02.207-.047.412-.08.614-.295-.082-.624-.113-1.017-.044.154.277.29.565.41.862.15-.016.29-.014.423 0-.357 1.27-1.02 2.41-1.9 3.34zM10.004 6.95C9.792 6.246 8.982 5.7 8.017 5.7c-.967 0-1.776.546-1.988 1.25-.017.055.005.09.067.06.174-.077.372-.114.587-.114.394 0 .74.145.946.396.092.3.1.733-.004.98-.162-.037-.22-.162-.378-.162-.16 0-.282.11-.55.11-.27 0-.3-.126-.477-.126-.207 0-.245.214-.245.455 0 1.074.99 2.554 2.042 2.554 1.052 0 2.04-1.48 2.04-2.555 0-.242-.05-.448-.266-.476-.107.077-.206.147-.455.147-.268 0-.342-.11-.5-.11-.192 0-.173.402-.4.425-.15-.363-.16-.83-.033-1.243.206-.25.553-.396.947-.396.214 0 .413.037.585.115.063.03.085-.005.07-.06zm-1.47 2.162c-.003.03-.014.058-.036.082-.184.028-.268.13-.48.13-.215 0-.298-.102-.484-.13-.02-.024-.032-.05-.035-.082.034-.06.194-.125.276-.126.086 0 .114.048.24.048.127 0 .155-.048.24-.048.084 0 .243.066.278.126zm.238.564s.054.02.07.068c-.22.168-.37.55-.825.55-.456 0-.607-.382-.825-.55.014-.048.07-.068.07-.068s.285.067.755.067c.47 0 .755-.067.755-.067zM6.176 7.742c.202-.206.63-.198 1.073-.03.018-.226-.377-.47-.77-.47-.288 0-.43.098-.43.24 0 .092.03.172.126.26zm3.378-.5c-.23 0-.503.072-.674.266-.018.052-.018.13.008.183.42-.146.79-.15.97.052.095-.088.125-.168.125-.26 0-.142-.142-.24-.43-.24zm-5.19-1.26c.033.075.105.1.185.06 1.043-.517 2.22-.81 3.467-.81 1.245 0 2.422.293 3.467.81.08.04.152.015.186-.06.3-.673.705-1.3 1.163-1.887-.763.054-1.425.315-1.96.75.227-.643.516-1.207.88-1.753-.97.103-1.78.458-2.374 1.063l-.465-1.213 1.03-.91-1.38-.096-.548-1.28-.55 1.28-1.38.097 1.03.91-.464 1.212c-.592-.605-1.404-.96-2.375-1.063.365.546.654 1.11.883 1.754-.535-.436-1.198-.697-1.96-.75.456.586.862 1.213 1.163 1.885zm2.574-1.524c.036-.026 1.08-.82 1.08-.82s1.04.794 1.077.82c.04.03.02.08-.032.072-.09-.016-.53-.09-1.046-.09s-.956.074-1.047.09c-.052.01-.073-.042-.032-.072z" fill="#000" fill-rule="evenodd"/>
</svg>
