<svg preserveAspectRatio="xMinYMin slice" viewBox="0 0 1700 1200" xmlns="http://www.w3.org/2000/svg" xmlns:xlink="http://www.w3.org/1999/xlink"><style>.B{fill:none}.C{stroke-linecap:round}.D{stroke:#000}.E{stroke-miterlimit:10}.F{fill:#fff}.G{fill:#eb459f}.H{fill:#ffc619}.I{stroke-linejoin:round}.J{fill:#d11583}.K{fill:#ffe75c}.L{fill:#3442d9}.M{fill:#66bcff}.N{stroke-width:2.289}.O{stroke:#fff}.P{fill:#fa80ba}.Q{stroke-width:2.238}.R{fill:#4452f2}.S{stroke-width:2.201}.T{fill:#ff8c19}.U{fill:#0c1aad}.V{fill:#8cd9ff}.W{fill:#ff78b9}.X{fill:#bf0f76}.Y{fill:#5865f2}.Z{fill:#6874f7}.a{fill:#29cc7a}.b{fill:#bde9ff}.c{fill:#039c78}.d{stroke-width:1.233}.e{stroke-width:1.703}.f{stroke-width:2.096}.g{stroke-width:1.521}</style><defs><linearGradient id="j" x1="269.7" x2="269.7" y1="800.4" y2="913.3" xlink:href="#a"><stop stop-color="#29cc7a" offset="0"/><stop stop-color="#038567" offset="1"/></linearGradient><linearGradient id="e" x1="1513" x2="1503.5" y1="519.5" y2="476.3" xlink:href="#a"><stop stop-color="#ffe75c" offset="0"/><stop stop-color="#ffc619" offset="1"/></linearGradient><linearGradient id="i" x1="1441.3" x2="1426.4" y1="493.6" y2="538.1" xlink:href="#e"/><linearGradient id="h" x1="1170.7" x2="1126.4" y1="805.2" y2="847.5" xlink:href="#a"><stop stop-color="#d11583" offset="0"/><stop stop-color="#eb50a4" offset="1"/></linearGradient><linearGradient id="g" x1="1478.2" x2="1463.3" y1="129.7" y2="91.4" xlink:href="#a"><stop stop-color="#66bcff" offset="0"/><stop stop-color="#8cd9ff" offset="1"/></linearGradient><linearGradient id="f" x1="1029.2" x2="975.4" y1="175.4" y2="141.3" xlink:href="#a"><stop stop-color="#ffc619" offset="0"/><stop stop-color="#ffe75c" offset="1"/></linearGradient><linearGradient id="a" gradientUnits="userSpaceOnUse"/><path id="d" d="M1191 754c-15 0-37 21-47 46s-4 41 11 39 33-21 43-43 7-43-7-43z"/><path id="b" d="m619 990 19-2 1 12-19 2z"/><path id="c" d="M744 964c10-6 9-14-3-17l-20-6c-11-3-28-1-38 5l-57 35c-10 6-9 13 2 16l21 6c11 3 28 1 38-5z"/></defs><path class="Y" d="M0 0h1700v1200H0z"/><g fill="#6270fc"><path d="M936 387h-7a127 127 0 0 0-176-48 126 126 0 0 0-226 48 65 65 0 0 0-8-6c-35-20-79-7-100 29a74 74 0 0 0 15 93c-14 9-24 23-24 39 0 27 28 49 63 49a75 75 0 0 0 35-8 126 126 0 0 0 238-32 126 126 0 0 0 167-20 74 74 0 0 0 96-70 74 74 0 0 0-73-74z"/><path d="M1211 312a65 65 0 0 0-38 12 74 74 0 0 0-140 32 78 78 0 0 0 1 13c-33 15-64 40-87 73h264a65 65 0 0 0 0-130z"/></g><path d="M1036 617a116 116 0 1 0-199-109 118 118 0 1 0 4 194 76 76 0 0 0 137 0 51 51 0 1 0 58-85z" fill="#707cff"/><path d="M990 243H579a3 3 0 0 1-2-5c25-29 62-31 101-23a88 88 0 0 1 158-32c36-29 159-32 160 54a6 6 0 0 1-6 6z" fill="#6a77fc"/><path class="Z" d="M58 531c89-46 152-11 152-11 44-13 83-4 103 12 13 10-15 8-78 8H60a5 5 0 0 1-5-5 5 5 0 0 1 3-5zm1468 294a35 35 0 0 0-67-12 33 33 0 0 0-8-1 36 36 0 0 0-28 13h103z"/><path class="R" d="M284 406c-4-22-2-28-18-49-5-6-27-5-38-3-12 3-25 19-25 19 10 56 19 51 22 69s0 26 21 26 36-9 29-27c11-3 14-14 9-35zm-157-78c-5 48 12 46 60 27z"/><path d="m367 371-44 32h6l11-10 12-8a55 55 0 0 0 12-8l3-6z"/><path class="G" d="M214 184a98 98 0 0 0-92 129l92 67a98 98 0 0 0 0-196z"/><g class="U"><path d="M242 291c-9-4-9-4-15-11s-12-11-19-11l16 60c18 3 28-8 30-17s-3-17-12-21z"/><path d="M235 301c-4-10-11-21-20-29a27 27 0 0 1-8-22l2-14a43 43 0 0 0-19-41 44 44 0 0 0-10-5 42 42 0 0 0-17-2 43 43 0 0 0-39 43 49 49 0 0 0 0 5l1 6 3 25a73 73 0 0 1-3 33 58 58 0 0 0-3 13l75 62a58 58 0 0 0 38-74z"/></g><path class="B C D E S" d="M197 375a58 58 0 0 0 38-74c-4-10-11-21-20-29"/><path class="U" d="M213 306c6-12 8-11 20-9 9 1 22 18 9 29s-42 10-29-20z"/><circle cx="176.4" cy="277.3" r="3"/><circle cx="194" cy="276" r="3"/><path class="B C E O" d="M194 276c16 10 11 20 25 36" stroke-width="2.7"/><path class="H" d="M180 306c9-8 11-10 15-11h9l1 37-22 2z"/><path d="M224 290a3 3 0 0 0-4-4h-15a5 5 0 0 0-5 4l-5 33a3 3 0 0 0 3 4h16a5 5 0 0 0 4-4z"/><path d="m223 287 1 2-4 1 3-3z"/><path class="H" d="M232 307c-2-3-4-7-10-7v7z"/><path class="F" d="M225 292a3 3 0 0 0-3-4h-16a5 5 0 0 0-5 4l-5 32a3 3 0 0 0 4 4h15a5 5 0 0 0 5-4z"/><g class="H"><path d="M222 305h6a5 5 0 1 1 0 10h-4a7 7 0 0 1-7-5c0-3 2-5 5-5z"/><path d="M221 314h4a5 5 0 0 1 5 6 5 5 0 0 1-5 4h-2a7 7 0 0 1-7-5c0-2 2-5 5-5zm-27 12h15v6h-15zm16-19h-9a2 2 0 0 1-3-1l-1-3-1-4-3 18h15a7 7 0 0 0 7-5c0-2-2-5-5-5z"/><path d="M208 317h-15l2 10h11c3 0 6-2 7-5s-2-5-5-5z"/></g><path class="M" d="M321 363c-1-15-14-16-23-20s-20-13-31-19-21-5-38 3l25 36c12 4 15 10 22 18s15 10 24 7c5 6 6 8 11 5s16-9 18-18-2-9-8-12z"/><path d="M313 388c-5-1-8-3-12-7l-3-4c-15-1-21-7-25-12-2-3-5-4-8-6l-7-6a30 30 0 0 1-4-5c-1-3-2-4-4-5s-5 2-8 3a37 37 0 0 1-8 4 1 1 0 0 1-1 0 1 1 0 0 1 1-2 35 35 0 0 0 7-3c3-2 6-4 9-4s4 3 6 6a57 57 0 0 0 3 5l7 5 8 7c4 5 11 11 25 12l4 3c3 4 5 7 10 7a1 1 0 0 1 1 1 1 1 0 0 1-1 1z" fill="#45aaf7"/><path class="B C D E S" d="M250 340a84 84 0 0 0-1 19"/><path class="V" d="M267 411c-12 13-23 11-28 11s-5-3-6-6l-1-8c-13 1-15-7-16-15l-5-13a98 98 0 0 1-77-43l12-11 31 15c19-10 30-16 40-18s22 0 27 15 6 18 10 25l4 6c5 8 10 18 4 31a71 71 0 0 0 5 11z"/><path d="M158 362c-2-10 2-17 8-19l-18-9-12 7a96 96 0 0 0 22 21z"/><path class="M" d="M243 417v-2c-3 0-3-2-5-10v-1h-1c-5-1-9-4-11-15a38 38 0 0 0-5-15 34 34 0 0 1-1-3l-2-3a22 22 0 0 1-2-12c0-5-1-7-2-8s-5 0-10 2h-1c-8 4-23 12-40 15l2 2c16-4 31-11 39-15h1l8-3c2 0 1 3 1 6a26 26 0 0 0 3 13l1 3a31 31 0 0 0 2 4c1 3 3 6 4 14 2 11 5 15 13 16 1 8 2 12 6 12z"/><path class="U" d="M180 304c-4-3-7-3-12 0-5-4-12-4-19 0l-23 10a2 2 0 0 1-3-2l3-17c-13 13-16 37-9 49s26 10 32 5 8-6 16-5 14 0 23-9l5-3c1-13-2-21-13-28z"/><path class="B C D E S" d="M180 304c-4-3-7-3-12 0-5-4-12-4-19 0l-23 10m43-9c13 7 16 17 18 24"/><g class="F"><path d="M256 258h-18a1 1 0 0 0 0 1l-3 14a1 1 0 0 0 2 1l19-14a1 1 0 0 0 0-2z"/><path d="M295 263c10 0 20-9 22-19 1-11-6-19-16-19h-58c-10 0-20 9-22 19s6 19 16 19z"/></g><path class="V" d="M240 252a10 10 0 0 0 9-8 6 6 0 0 0-6-8 9 9 0 0 0-9 8 7 7 0 0 0 6 8z"/><path class="M" d="M268 252a10 10 0 0 0 9-8 7 7 0 0 0-7-8 9 9 0 0 0-9 8 7 7 0 0 0 7 8z"/><path class="V" d="M295 252a9 9 0 0 0 9-8 7 7 0 0 0-7-8 9 9 0 0 0-9 8 7 7 0 0 0 7 8z"/><path class="a" d="M210 294a2 2 0 0 0-2-2h-1a2 2 0 0 0-2 2v5a2 2 0 0 0 1 1h1a2 2 0 0 0 2-1z"/><path class="H" d="M185 271a17 17 0 0 1 10-10c-2-7-2-11 0-16-8-2-12-7-13-11h-1c-3 7-7 8-11 8h-1c5 7 3 13-1 18h1c8 1 12 5 15 11h1z"/><path class="B C D E S" d="M208 317h-8m22-2h5m-46-82c3-8 2-13 1-16m12 28c6 0 9-2 12-5m-21 31a13 13 0 0 1 0 3m-16-14c-5 4-12 5-18 4m19-22c-3-4-7-8-10-9m35 28a30 30 0 0 0 6 1"/><path d="M179 248c3 9 6 8 7 5s2-7 4-7 2 4 0 10-6 8-11 4-5-9-5-13 3-4 5 1z" fill="#c40655"/><g class="B C E"><path class="O" d="M176 277c4 19-5 30-5 49" stroke-width="2.7"/><path class="D S" d="M210 379a46 46 0 0 1-1-35m-3 16c-3-4-3-9-3-9m-71-39-10 5m113-21 5 1"/></g><path class="J" d="M367 370a23 23 0 0 1-3 4c-4 5-13 11-18 14l-11 8c-4 4-8 9-12 7s-9-8-13-12a2 2 0 0 1 0-2c1-5 6-14 15-19a2 2 0 0 1 2 0c5 3 9 3 13 2 6-1 12-4 19-7s7 0 8 5z"/><path class="P" d="M314 396a71 71 0 0 0 9 7c4 2 9-3 12-7s5-5 11-8 14-9 18-14a23 23 0 0 0 3-4c-1-5-3-8-8-5l-13 6a7 7 0 0 0-4 5v5c-8 0-15 3-16 13 0 0-6-2-12 1z"/><path class="K" d="M364 374a32 32 0 0 0 3-3 1 1 0 0 0 0-1 8 8 0 0 0-1-3l-7 8c-6 6-14 9-18 11a31 31 0 0 0-10 8 21 21 0 0 1-9 7l1 2c4 2 9-3 12-7s5-5 11-8 14-9 18-14z"/><path class="J" d="M281 392c-8-1-14 3-20 16-1-1-6-2-13 0s-8 6-9 8a6 6 0 0 0 0 4l2 8c2 6 2 11 6 11l43-40s0-6-9-7z"/><path class="P" d="M281 392c-8-1-14 3-20 16l-1 6c-8 0-11 4-11 11 0 0-5-2-8 2v1c2 6 2 11 6 11l43-40s0-6-9-7z"/><path class="K" d="m289 397-4-2c-6-1-11 0-15 7s-8 13-13 18c-7 7-13 10-14 15 1 2 2 4 4 4l43-40a7 7 0 0 0-1-2z"/><path class="J" d="M283 393h3a2 2 0 0 1 2 1l2 7h-13c4-3 5-5 5-7a1 1 0 0 1 1-1z"/><path d="M247 439c12 1 17-4 21-10a37 37 0 0 1 7-6c7-5 12-10 15-18 4-9-9-10-16-3s-6 15-20 26c-10 8-11 11-7 11z"/><ellipse class="F" transform="rotate(-2 243 419)" cx="244.3" cy="417.4" rx="1.6" ry="2.5"/><path class="J" d="M367 369a15 15 0 0 0-2-4h-1c1 3 2 6 1 8 3-3 2-4 2-4z"/><ellipse class="F" transform="rotate(-18 318 387)" cx="317.8" cy="387" rx="2.4" ry="3.6"/><path class="R" d="M290 1034a76 76 0 0 1-75-62c-6-34-12-61-20-83l140-52c6 23 16 53 29 103 12 48-24 94-74 94z"/><path class="H" d="M489 732c-5-6-7-5-10-5 0-6-3-7-4-2s-3 8 1 12 7 12 9 20a136 136 0 0 0-13 4l7 19c14-6 21-11 22-22s-7-20-12-26z"/><path class="b" d="M350 708c11 0 18 0 29 4a18 18 0 0 1 13 17v40h-4l-2-3v-31a16 16 0 0 0-12-16 125 125 0 0 0-20-3l-5-8z"/><path d="M395 803a8 8 0 0 1-8-8v-40a8 8 0 0 1 8-8 10 10 0 0 1 10 10v36a10 10 0 0 1-10 10z"/><circle class="U" cx="271.2" cy="806.2" r="112.7"/><path class="c" d="M164 772a113 113 0 0 0 49 131 81 81 0 0 0-49-131z"/><path d="M180 786c-8-3-9-4-10-8s-3-3-7-3l-1 3c15 9 19 30 19 30l6-3s0-17-7-19z" fill="#fa94c4"/><path d="M160 827a113 113 0 0 0 219 11l-118-49c-27-7-74-10-101 38z" fill="url(#j)"/><path d="M348 887c-23 0-66 5-90-23 18 20 26 35 27 54a112 112 0 0 0 63-29z"/><path class="P" d="M176 806c14-13 53-23 85 0l13-13c-1-21-6-23-13-16s-8 1-14-11-15-14-21-2-4 13-9 11-14-6-22-7-11 9-10 18-2 8-6 6-5 3-3 14z"/><path class="B C E N" d="M234 791a113 113 0 0 0 1-30m-43 11c6 12 7 18 7 18" stroke="#ff5cb4"/><path d="M499 806c3-11 4-11-19-10l-71 3c-1-14-6-20-11-28 2-24-2-47-26-53s-59-7-83 2-17 42-14 65c0 0-21 6-29 27-6 17-3 38 15 56 30 28 60 31 88 28 22-3 33-19 37-36 40 15 65-7 74-18 11-13 26-17 35-21s13-7 4-15z" fill="#2ad17d"/><path class="P" d="M302 682c-8-1-17 5-11 21-10-1-19 4-12 19l42-14c-4-19-10-26-19-26z"/><rect x="263" y="741" width="37.4" height="66.9" rx="18.7"/><path class="F" d="M356 709v6c-18-2-40-2-58 2a16 16 0 0 0-12 16v35h-22v-37a22 22 0 0 1 18-21c33-6 55-4 74-1z"/><path class="b" d="M322 706c-11 0-18 1-29 4a18 18 0 0 0-13 18v40h4l2-4v-31a16 16 0 0 1 12-16 125 125 0 0 1 20-3l5-8z"/><path class="c" d="m417 804-62 3c-9 1-15 1-17 6s12 5 29 6h77a486 486 0 0 0 48-4c11-1 1-8 1-8s4-6-2-7-74 4-74 4z"/><path class="F" d="M391 814c1-15 7-16 9-12a27 27 0 0 1 4 8 4 4 0 0 1 3 0 5 5 0 0 1 2 4zm-33-2c3-10 11-8 16-6a8 8 0 0 1 4 7zm-11 0c2-11 5-10 6-6l1 6z"/><path class="H" d="M488 809c-14 2-41 4-75 5-1-9 2-16 12-24 5-4 4-6 4-9-1-8-5-16-9-27-8-16-9-30 3-37s26-3 36 10 29 44 29 82z"/><path d="M447 735c9 8 13 7 15 7s0-6-1-8z" fill="#ffae00"/><path class="F" d="M468 811c6-11 9-14 13-13s3 11 3 11zm-20 2c5-17 11-15 13-12l4 10zm-15-66c0 4-1 7-3 8s-4-2-5-5-1-9 1-10 6 2 7 7z"/><path d="M447 735c-2-3-1-9 2-14s8-7 11-7 5 3 1 13c5-1 8-1 8 2s-3 5-11 7-9 0-11-1z" fill="#ed5f00"/><g class="H"><path d="M479 726c1-4 3-4 3-4v6c-1 3-5 2-3-2z"/><path d="M481 727c3-3 5-2 6-2l-3 5c-2 2-5-1-3-3z"/></g><path class="F" d="M343 774c6 0 9-1 9-4s-3-8-12-9-14 4-15 9 1 4 7 4a82 82 0 0 1 11 0zm35 0c-5 0-7-1-7-4s2-8 9-9 12 4 13 9-1 4-6 4a54 54 0 0 0-9 0z"/><path class="b" d="M268 747h5a13 13 0 0 1 13 13v29a13 13 0 0 1-13 14h-5a17 17 0 0 1-17-17v-22a17 17 0 0 1 17-17z"/><path class="F" d="M267 747h13v43a13 13 0 0 1-13 13 16 16 0 0 1-16-16v-24a16 16 0 0 1 16-16z"/><path class="P" d="M362 740c-7 0-10-2-15-9s-11-18-29-17c-11-16-6-34 5-44s33-9 41 6c5 7 6 16 4 30 9-2 13 4 11 12s-8 22-17 22z"/><rect class="W" x="261" y="764" width="7.5" height="21.4" rx="3.7"/><g class="B C D E"><path d="M382 766a8 8 0 0 1 5 1m-49-1a17 17 0 0 1 8 1" stroke-width="3.2"/><path d="m352 751-28 1m68 0-18-1" stroke-width="6.9"/><path class="N" d="M490 808c-22 4-77 8-145 4"/></g><path class="c" d="M383 860c-6 8-15 16-31 19-24 5-37-18-39-36 0-9-1-17 3-8 7 17 23 19 34 19s18 1 33 6z"/><path class="B C D E N" d="M255 874c7 4 16 4 16 4m-20-76a47 47 0 0 0-8 20"/><ellipse transform="rotate(-46 331 832)" cx="331" cy="831.8" rx="5.7" ry="10.1" fill="#03ab83"/><path class="B C E N" d="M359 739c7-8 10-19 12-26m-24 16c6-24 6-49-10-58" stroke="#eb459f"/><ellipse transform="rotate(-9 259 835)" cx="257" cy="830.6" rx="4.2" ry="6.8" fill="#57f287"/><path class="B C D E N" d="m333 812 5-7"/><ellipse transform="rotate(-25 428 744)" cx="428.3" cy="743.6" rx="1.9" ry="2.9"/><path d="M451 731h-1a17 17 0 0 1 3-8c2-3 4-5 6-5l3 1a32 32 0 0 1-2 9 23 23 0 0 1 6-1v1l-15 3z"/><path class="B C D E N" d="M442 791c1 10-7 22-7 22"/><path class="F" d="m289 890-1-1h1l2-3-2-1-1-1a2 2 0 0 1 1-1l1-2-2-2h-1l1-1 1-2-2-2a2 2 0 0 1-1 0l1-1 1-2-2-2a3 3 0 0 1-1 0l1-1 1-2-2-2h-1l1-1 1-2-2-2h-1v-1a3 3 0 0 0 2-2l-2-2h-1l1-1 1-2-2-2-1-1h1l2-2-2-2v-1l1-1a1 1 0 0 0 1-1 1 1 0 0 0-1-1l-1-9c1-7-1-25-3-30a1 1 0 0 0-1-1 1 1 0 0 0-1 1c2 5 4 22 3 30 0 6 0 9 2 10l-2 2 1 2 1 1h-1l-2 2 2 2 1 1h-1l-1 3 2 2a3 3 0 0 1 1 0 2 2 0 0 1-1 1l-1 2 2 2h1a5 5 0 0 1-1 1l-1 2 2 2h1l-1 1-1 2 2 2h1v1l-2 2 2 2h1v1l-2 2 2 2h1l-1 1-1 2 2 2h1l-1 1-2 2 2 2 1 1h-1l-2 2 1 2 1 1h-1l-2 2 1 2 1 1h-1l-2 1a3 3 0 0 0 0 3l1 1h-1l-3 1c-1 1 0 1 1 2v1h-4v3a4 4 0 0 0 0 1h-3l-1 3 1 1-1-1h-3a2 2 0 0 0-1 1h6a6 6 0 0 0 0-2h4v-3a4 4 0 0 0 0-1h1l2-1v-3h1l2-1v-3l-1-1h1l3-1c1-1-1-2-1-3l-1-1h1l2-2-1-2-1-1h1l2-2-2-2z"/><path class="B C D E N" d="m485 757 5 2"/><g fill="#2ad17d"><path d="M203 875c-4-2-10-1-18 4a129 129 0 0 0 10 10c-2 9-5 15-8 21s0 11 6 12 8-1 12-8a34 34 0 0 0 5-13 55 55 0 0 0 0-9c0-9-2-15-7-17z"/><path d="M209 887c7 0 11-1 14 3s3 9 1 17-5 17-12 17-9-5-6-14a188 188 0 0 0 3-23z"/><path d="M223 897c5 0 11 0 12 5s0 12-3 17-7 7-11 5-3-3 0-10 3-10 2-17z"/><path d="m254 910-20-1-1 3a110 110 0 0 0 27 6c3-5 0-8-6-8z"/></g><g class="B C E N"><path class="D" d="M205 913a47 47 0 0 0 5-26m15 11c0 8-1 15-5 21"/><path d="M313 807c2-6 7-12 10-14m-4-21-4-3" stroke="#039c78"/></g><path d="M241 691a30 30 0 0 1-14-21l-2-14a1 1 0 0 0-1-2 1 1 0 0 0-2 1l-2 15a30 30 0 0 1-14 21l-1 1a2 2 0 0 0-1 1 2 2 0 0 0 1 2l1 1a30 30 0 0 1 14 21l2 14a1 1 0 0 0 2 1 1 1 0 0 0 1-1l2-14a30 30 0 0 1 14-21l1-1a1 1 0 0 0 1-2 2 2 0 0 0-1-1z" fill="#91ffad"/><path class="M" d="M1376 298a25 25 0 0 1-11-18l-2-12a1 1 0 0 0-1-1 1 1 0 0 0-1 1l-2 12a25 25 0 0 1-11 18l-2 1a1 1 0 0 0 0 1 1 1 0 0 0 0 1l2 1a25 25 0 0 1 11 17l2 12a1 1 0 0 0 1 1 1 1 0 0 0 1-1l2-12a25 25 0 0 1 11-17l2-1a1 1 0 0 0 0-1 1 1 0 0 0 0-1z"/><path class="L" d="M1464 954a44 44 0 0 1-20-30l-3-22a2 2 0 0 0-2-2 2 2 0 0 0-2 2l-3 22a44 44 0 0 1-20 30l-3 2a2 2 0 0 0-1 2 2 2 0 0 0 1 2l3 2a44 44 0 0 1 20 30l3 21a2 2 0 0 0 2 2 2 2 0 0 0 2-2l3-21a44 44 0 0 1 20-30l3-2a2 2 0 0 0 1-2 2 2 0 0 0-1-2z"/><path class="W" d="M790 845a14 14 0 0 1-7-9l-1-6a1 1 0 0 0 0-1 1 1 0 0 0-1 0l-1 7a14 14 0 0 1-6 9l-1 1a1 1 0 0 0 0 1l1 1a14 14 0 0 1 6 9l1 6a1 1 0 0 0 1 1l1-7a14 14 0 0 1 6-9l1-1a1 1 0 0 0 1 0 1 1 0 0 0-1-1zm53-698a8 8 0 0 1-3-6l-1-4-1-1v5a8 8 0 0 1-4 5l-1 1 1 1a8 8 0 0 1 3 6l1 4h1c1 0 0 0 0 0v-4a8 8 0 0 1 4-6l1-1z"/><g class="M"><circle cx="1427.5" cy="531.4" r="98.7"/><circle cx="1427.5" cy="531.4" r="98.7"/><circle cx="1427.5" cy="531.4" r="98.7"/></g><circle class="B" cx="1427.5" cy="531.4" r="108.1" stroke="#29cc7a" stroke-width="6.9"/><path class="G" d="M1355 562a26 26 0 0 0-19 7 98 98 0 0 0 32 41 26 26 0 0 0-13-48z"/><path class="X" d="M1344 570c1 2 5 4 12 5s12 0 12-1a169 169 0 0 0 7-16c1-3-1-8-13-9s-16 1-18 3-2 9 0 18z"/><path class="K" d="M1383 508c-2 0-5 1-8 7v-20c0-4-1-5-3-5a4 4 0 0 0-5 4l-1 15-1 4-1-3a103 103 0 0 0-4-11c-2-5-3-8-9-6s-12 7-13 11 0 7 5 18c-4 16-3 18-1 21s8 3 17 2c20-1 20-2 22-11l4-19c0-3 1-7-2-7z"/><path d="M1372 523a1 1 0 0 0 1-1 74 74 0 0 1 2-7v-4a51 51 0 0 0-4 10c-9 1-14 6-16 14a1 1 0 0 0 1 1 1 1 0 0 0 1-1c2-7 6-11 15-12z"/><path class="K" d="m1353 544-1 10 16 1 1-13z"/><g class="G"><path d="M1416 547c-22 4-28 23-26 44-10 6-13 14-13 25a99 99 0 0 0 112-7l4-56s-54-10-77-6z"/><path d="M1381 575c-13 4-21 14-23 27a99 99 0 0 0 44 25l12-81c-18-2-35 7-34 29z"/></g><path d="M1420 560c-11-21-17-23-15-30s15-7 34-6-1 35-1 35z"/><g class="B C I Q"><path class="D" d="M1416 547c-22 4-28 23-26 44-9 6-13 13-13 23"/><path class="O" d="M1447 554c-23 10-20 18-13 38a40 40 0 0 0-12 37"/></g><path d="M1474 429c7-9 16-14 24-12s10 7 15 33c16 9 18 11 5 29 12 12 13 18-2 31h-16c-14-11-17-12-10-29-22-26-19-31-16-53z" fill="url(#e)"/><path class="B C I O Q" d="M1495 483c0-4 2-6 4-6s3 3 3 6"/><g class="R"><circle cx="1490.8" cy="451.2" r="9.2"/><circle cx="1487.3" cy="437.7" r="9.2"/><circle cx="1475.5" cy="433.6" r="9.2"/><circle cx="1466.4" cy="431.5" r="5.6"/></g><path d="M1435 565c18 0 33-9 42-17a34 34 0 0 0 10-21l6-52c2-32-18-45-37-43s-35 11-38 43c-22 0-30 3-32 11s8 13 23 19c3 2 4 2 4 4s3 12 16 23c-3 8-4 14-3 23s6 10 9 10z" fill="url(#i)"/><path class="X" d="M1434 559c-8-19-11-22-26-33l-4 4c-1 7 5 9 15 30z"/><path class="K" d="M1486 468c18-2 22-1 23 3s-4 8-22 18z"/><path d="m1447 494-1 13c0 6 0 11-6 12s-10-7-11-10l-3-4-8-4c-3-1-6-4-5-5s10 1 19 2 11-2 14-5c0-1 1-1 1 1z" fill="#c40655"/><path d="M1446 493c-2 2-3 4-8 5a10 10 0 0 0 0 2c-1 5 2 9 5 9a5 5 0 0 0 3-1v-1l1-13c1-3-1-2-1-1z"/><path class="B C E" d="M1445 486a24 24 0 0 0 9 6" stroke="#ffae00" stroke-width="2.5"/><path class="R" d="M1431 513c2 3 5 6 9 6 6-1 6-7 6-13v-5c-7-1-14 2-15 12z"/><path class="B C D I Q" d="M1443 500c-3 2-6 6-7 13m-15-39c0-6 2-8 3-8l1 8m26 0c2-10 5-10 6-9s2 2 2 9"/><ellipse class="P" transform="rotate(-36 1466 478)" cx="1466.2" cy="477.8" rx="7.2" ry="5.7"/><path class="B C I O Q" d="M1502 483c0 3-1 5-3 5s-4-2-4-5"/><path class="F" d="m1497 502-3-5a1 1 0 0 1 0-1l4-5a1 1 0 0 1 1 0l2 5-3 6a1 1 0 0 1-1 0z"/><path class="R" d="M1516 510h-16c-2 2-2 3 0 4l16-1c3-2 2-2 0-3z"/><path class="K" d="m1516 513 2 10c0 2 0 3-10 3s-9-1-9-3l1-9z"/><path class="X" d="M1488 545c5-17 7-23-3-23a334 334 0 0 0-37 4c-9 2-9 3-5 33z"/><path class="F" d="M1390 541a2 2 0 0 0-2 3l5 39a5 5 0 0 0 2 3c1 1 4 2 9 2s8-1 9-2a5 5 0 0 0 2-3l5-39a2 2 0 0 0-2-3z"/><path class="B C I O" d="M1413 549c6-1 9-1 10 1s0 6-1 13-2 5-10 6" stroke-width="5"/><ellipse transform="rotate(-82 1457 453)" cx="1456.6" cy="452.8" rx="1.4" ry="3.8"/><ellipse transform="rotate(-82 1424 456)" cx="1423.2" cy="456" rx="1.2" ry="2.6"/><g class="G"><circle cx="1479.4" cy="628.7" r="27.3"/><path d="M1432 559c30-11 48-18 62-21a33 33 0 0 1 18 3c20 8 15 29 8 39 13 9 19 25 6 43 11 9 18 30 4 42s-36 9-45-10z"/></g><path class="X" d="M1456 620c2 1 7-1 12-5s9-9 8-10l-7-17c-2-3-7-5-16 3s-12 13-11 16 6 8 14 13z"/><g class="K"><path d="M1450 585c9-10 12-17 13-21s1-6-7-13-12-9-16-9-7 5-10 14c-1 1 5 5 3 5-9 3-12 15-13 20s-2 10 5 14 10 6 25-10z"/><path d="M1437 551c-12 0-17 1-20 2s-3 4-2 7 1 4 7 4h15zm4 42 7 8 12-10-8-12-11 14z"/></g><path d="M1346 495a11 11 0 0 0-3 1 2 2 0 0 0 0 2c1 4 3 10 9 20a1 1 0 0 0 0 1l1-1a1 1 0 0 0 0-1c-9-18-9-21-7-22z"/><path class="B C D I Q" d="M1439 552c-5 2-5 7-4 11-5 2-7 5-6 11-2 2-5 4-4 9"/><path d="m1442 593 4-4-2 8-2-4zm-90-47 13-1-12 7v-6z"/><path class="G" d="m1343 565 28 3v9l-29-2 1-10z"/><path d="M1506 621a27 27 0 0 0-27-20m10-20a28 28 0 0 0-5 20m2-14-3-4" class="B C D I Q"/><path class="H" d="M1259 840a34 34 0 0 0-14 0c0-5-5-11-17-21a60 60 0 0 1-18-48l-41 33-10 42c15-4 30-6 45 0l5 3a5 5 0 0 1 1 8l-8 7a106 106 0 0 0-10 12c-17 23-12 42 9 41 20-1 45-17 59-36s16-37-1-41zm-4 34c-14 18-39 33-49 33s-8-14 6-30 35-31 45-31 10 12-2 28z"/><path class="T" d="M1210 771c0 8-2 17-5 27-9 23-27 42-43 47l7-1c14-8 29-26 37-46a74 74 0 0 0 5-16 105 105 0 0 1-1-11z"/><ellipse class="H" transform="rotate(-59 1173 797)" cx="1172.7" cy="797.3" rx="54.4" ry="28.8"/><g class="T"><use xlink:href="#d"/><use xlink:href="#d"/></g><path d="M1198 796a96 96 0 0 0 5-14 8 8 0 0 0-6-2c-10 0-25 15-32 31-4 11-4 20 0 24 12-7 25-22 33-39z"/><path d="M1197 799a104 104 0 0 1-11 17c-7 2-8 9-12 16-4 9-12 17-26 23-23 10-41 0-47-6s-3-12 7-13 23-1 32-14a40 40 0 0 0 3-7c8-19 21-19 28-14 9-6 18-6 26-3z" fill="url(#h)"/><path class="B C D E e" d="M1171 801c-11 7-13 21-21 30s-14 10-14 10"/><path class="F" d="m1201 759-1 3c-2 3-5 3-10 3s-4-2 2-11a12 12 0 0 1 9 5zm-10-5c-6 8-8 11-12 11s-8 1-4-5a15 15 0 0 0 1-1l15-6z"/><path d="m1245 850 1-8a1 1 0 0 0-1-1 1 1 0 0 0 0 1c0 4-1 7-5 11a51 51 0 0 1 5-3z"/><g class="B E"><path class="C" d="m1227 871 7 20m1-27 7 20m1-27 8 20" stroke="#ffc619" stroke-width="5.6"/><path d="M1261 859c-2-5-8-5-13-1l-21 18c-5 4-7 12-5 17s7 6 12 1l21-17c5-5 8-13 6-18z" stroke="#ff8c19" stroke-width="3.8"/></g><path class="T" d="M1254 875a68 68 0 0 0 6-6 18 18 0 0 0 4-7c1-5-1-10-3-16l-3-8-1-4-2-4a55 55 0 0 1-3-9 57 57 0 0 1-1-9 4 4 0 0 1 4-4 4 4 0 0 1 4 4 45 45 0 0 0 1 17 30 30 0 0 0 1 4l2 4 3 8a67 67 0 0 1 2 9 19 19 0 0 1-5 17 76 76 0 0 1-6 7 2 2 0 0 1-3-1 2 2 0 0 1 0-2z"/><path class="F" d="M1259 807a7 7 0 0 1 0 9l-1 1a5 5 0 0 1-7 0l-1-1a7 7 0 0 1 9-9z"/><rect class="B D E e" transform="rotate(45 1255 811)" x="1251" y="807" width="7.8" height="7.8" rx="3.9"/><path d="m1143 766-14-8a6 6 0 0 1-3-5v-1a6 6 0 0 1 6-6 6 6 0 0 1 6 4z" fill="#4ab0ff"/><path class="M" d="m1125 804-9 7a4 4 0 0 1-4 1l-1-1a4 4 0 0 1-2-5 4 4 0 0 1 4-3z"/><path class="Z" d="M537 83a21 21 0 0 0-17 9 43 43 0 0 0-17-4 43 43 0 0 0-28 10h82a21 21 0 0 0-20-15z"/><g fill="#808aff"><path d="M1519 121s0 1 0 0c-3-2-5-1-6 0v5a1 1 0 0 1-1 1c0 1 0 1 0 0-2-2-3-3-5-3s-4 1-6 4l-6-7a20 20 0 0 0 7-12c1-3 2-3 6 0a55 55 0 0 1 11 12zm-53 11a1 1 0 0 0 0-1c2-2 4-2 5-2l2 4a1 1 0 0 0 1 0h1l2-4a5 5 0 0 1 5 1l3-6a15 15 0 0 1-8-7c-2-3-3-2-5 1a38 38 0 0 0-6 13v1z"/><circle cx="1491" cy="131.5" r="12.4"/></g><path class="L" d="M1527 74a1 1 0 0 1-1 1c-10-3-13-1-14 2s0 5 3 10a2 2 0 0 1-1 2 2 2 0 0 1-2 0c-6-2-9-4-12-3a9 9 0 0 0-9 7l-16-7c5-9 5-17 3-26s0-9 13-4a136 136 0 0 1 35 17 1 1 0 0 1 1 1z"/><path class="B C D I d" d="m1487 78 3 17"/><path class="L" d="M1412 111a1 1 0 0 0 1 0c5-6 8-7 10-6l6 8a2 2 0 0 0 2 1 2 2 0 0 0 1-1l5-8c2-2 7-2 12 1l5-13c-9-3-15-8-19-15s-6-5-11 4a86 86 0 0 0-12 28 1 1 0 0 0 0 1z"/><path class="B C D I d" d="M1437 91a50 50 0 0 0 9 12"/><path d="M1448 101c5-2 12 2 15 9s1 15-5 18l17-2c14-5 21-13 15-27-4-10-13-14-26-9s-16 11-16 11z"/><path class="F" d="m1459 98 9 11c2 1 2 0 1-3l-3-16z"/><path d="m1450 106 7 8c1 1 1 0 1-3l-3-11z" fill="#808aff"/><path class="F" d="m1476 124-1-11c0-1 1-1 2 2l6 10z"/><path d="M1452 125a8 8 0 0 1 4-5c3-1 7-1 14 1a12 12 0 0 0 8-1c8-3 12-11 11-19s-9-12-17-9a17 17 0 0 0-8 7c-5 9-7 12-11 14a8 8 0 0 1-7 0c-4-2-7-8-4-15a27 27 0 1 1 36 36 28 28 0 0 1-21-1c-6-2-6-5-5-8z" fill="url(#g)"/><path class="G" d="M1484 89a15 15 0 0 0-13-1c-4 2-7 5-10 10s-8 13-13 13a7 7 0 0 1-6-3v1a7 7 0 0 0 6 4c4-1 9-5 14-15a19 19 0 0 1 10-8 13 13 0 0 1 11 0 14 14 0 0 1 7 10c2 9-3 19-12 23a16 16 0 0 1-8 0c-9-1-14-1-17 2a4 4 0 0 0-1 4 5 5 0 0 1 2-3c2-2 8-3 15-1a16 16 0 0 0 10-1c9-3 15-14 13-24a16 16 0 0 0-8-11z"/><path class="B C D I d" d="m1500 65 26 9m-13 14-18-18m-65 43-1-22m-16 19a120 120 0 0 1 11-20"/><g class="L"><path d="M1404 154c-2-2-3-2-4-1a7 7 0 0 0-2 4h-1l-3-3c-1 0-3-1-5 1l-3-6a15 15 0 0 0 8-7c2-2 2-2 5 1a38 38 0 0 1 5 11zm-41-4h4a5 5 0 0 1 1 3 1 1 0 0 0 1 0 6 6 0 0 1 3-2 3 3 0 0 1 3 2l3-4a11 11 0 0 1-4-7c-1-3-1-2-4 0a27 27 0 0 0-7 8z"/><circle cx="1381.2" cy="155.6" r="9.4"/></g><path d="M705 902a24 24 0 0 0 3 2c5 3 6 6 4 9s-7 2-12-1-6-9-4-11 5-3 9 1z" fill="#ffc069"/><g class="L"><use xlink:href="#b"/><path d="M745 976c9-6 9-14-3-17l-20-6c-11-3-28-1-38 5l-57 35c-10 6-9 13 2 16l20 6c11 3 29 1 38-5z"/></g><use class="J" x="112" y="-34" xlink:href="#b"/><use class="Y" xlink:href="#c"/><path class="J" d="M745 976h-2l-42-24c7-1 15-1 21 1l20 6a23 23 0 0 1 5 2c6 4 6 10-2 15z"/><path class="G" d="M747 961a24 24 0 0 1-3 3h-2l-41-12-19-5 1-1c10-6 27-8 38-5l20 6c10 3 12 9 6 14z"/><path d="m688 998 55-34-61-17-55 33 61 18z"/><path d="m743 976-1-12-54 34 1 11 54-33z"/><path class="F" d="M743 959c10-6 9-13-2-16l-20-6c-11-3-29-1-38 5l-57 34c-10 6-9 14 2 17l20 6c11 3 28 1 38-5z"/><path class="H" d="M622 977c10 32 7 35 19 23s21-18 53-7c38 13 35 13 37-17 1-13 9-20 14-31z"/><ellipse class="G" transform="rotate(-8 652 977)" cx="655.3" cy="980.6" rx="33.2" ry="14.5"/><ellipse class="J" transform="rotate(-8 688 966)" cx="690.6" cy="968.9" rx="33.2" ry="14.5"/><ellipse class="G" transform="rotate(-8 712 945)" cx="715.2" cy="948.7" rx="33.2" ry="14.5"/><path class="a" d="m721 931-101 39c-10 4-9 13 3 12a40 40 0 0 1 28 10c5 5 13 5 20-1s16-9 25-11 20-9 25-16 14-11 20-12 12-3 12-11-13-12-32-10z"/><g class="L"><use x="-2" y="-30" xlink:href="#b"/><use x="-2" y="-18" xlink:href="#c"/></g><path class="J" d="m729 931 20-2v12l-19 2z"/><path class="Y" d="M741 934c10-6 9-14-2-17l-20-6c-12-3-29-1-39 5l-57 35c-9 6-8 13 3 17l20 5c11 4 28 1 38-5z"/><path class="J" d="M742 946h-1l-43-23c8-2 16-2 22 0l20 6a24 24 0 0 1 5 2c6 4 5 10-3 15z"/><path class="G" d="M745 931a30 30 0 0 1-4 3l-1 1-42-12-19-6 1-1c10-6 27-8 38-5l21 6c9 3 11 9 6 14z"/><path class="L" d="m685 968 55-33-61-18-55 33 61 18z"/><path d="m741 946-1-11-55 33 1 11 55-33z"/><path class="B C D E f" d="m682 942-14-44"/><circle class="a" cx="676.7" cy="924.6" r="11.7"/><path class="B C D E f" d="m674 918-6-20"/><circle class="G" cx="668.2" cy="898" r="4.1"/><ellipse transform="rotate(-8 649 959)" cx="656.7" cy="967.2" rx="7.9" ry="3.4"/><ellipse transform="rotate(-8 720 916)" cx="729.1" cy="923.4" rx="7.9" ry="3.4"/><path d="M800 992c-9 6-20 7-25 1s-2-10 8-12a14 14 0 0 0 8-6c6-7 11-9 15-5s2 16-6 22zm-193 51c0 4-5 4-10 1a14 14 0 0 0-8-3c-5 0-8-1-8-6s7-8 14-6 13 8 12 14z" fill="#ffc069"/><path class="T" d="M1004 133c0-6-4-12-10-11s-11 3-18 7a22 22 0 0 1-13 2c-21-3-27-3-31-1s-6 4-4 8 4 8 11 11l31 11c9 4 20 6 27 10l35 23c7 6 9 4 10 4v-8a32 32 0 0 0-6-17l-17-21c-5-7-7-17-15-18z"/><path d="M1019 151c-4-7-7-17-15-18-13 0-24 6-31 7l-25 1-7 1v5l8 3 34 12 19 9 22 14 16 12 2-1v-7a32 32 0 0 0-6-17l-17-21z" fill="url(#f)"/><path d="m1042 197 1-3c-1 4-4 1-7-2s-8-11-20-16c-21-9-25-18-48-21-11-1-21-8-24-9l-5-3a15 15 0 0 0-2-9c-2-4-6-5-9-1a8 8 0 0 0 0 5c1 5 4 8 11 11l32 11c9 4 19 6 26 10l35 23c7 6 9 4 10 4z" fill="#ed5f00"/><path d="m1042 197 1-3c-1 4-4 1-7-2a92 92 0 0 0-7-7c2 2 3 5 3 8 7 6 9 4 10 4z"/><path class="H" d="m1046 203-1-11c1-3-1-10-8-19l-4 16c6 7 9 13 9 17s1 10 4 9 1-8 0-12z"/><path class="W" d="M952 147a35 35 0 0 0 8 3 77 77 0 0 0 11 3h1c-1-5-7-8-11-8l-9 1v1z"/><path class="G" d="M1006 146c-1 2-5 4-11 4s-10-3-10-6 4-5 8-3a20 20 0 0 0 6 1c4 1 7 1 7 3zm8 19a40 40 0 0 0 5 2c2 1 3 2 2 3h-8c-3-1-6-5-5-7s3 0 6 2zm23 5a8 8 0 0 0-5-3c-3 0-4 1-4 3s2 5 7 9 6-1 5-3l-3-6z"/><path class="M" d="M1006 103a40 40 0 0 0-15 2c-3 1 0 5 9 7s19 2 23 2 3 0 5 3 5 4 5 2-1-4 1-6l2-4c0-2-1-1-2 0a57 57 0 0 1-6 3l-4-2a33 33 0 0 0-18-7z"/><path class="B C I" d="m987 107 4-1-3-3" stroke="#66bcff" stroke-width="2.4"/><ellipse transform="rotate(-1 1050 111)" cx="997.8" cy="104.9" rx="1" ry=".6"/><path class="T" d="M935 136c-1-2-3-3-4-2s-2 4 0 6 3 3 5 2 1-4-1-6z"/><g class="B C E" stroke-width="1.7"><path d="M1033 181c5 3 7 6 8 11" stroke="#ffe75c"/><path class="D" d="m1029 114 2-1"/></g><path class="L" d="M961 176a38 38 0 0 0-13 4c-3 1 0 4 9 5s17-1 21-1 3-1 5 1 4 4 4 2v-6l2-4h-3a30 30 0 0 1-4 4l-4-2a30 30 0 0 0-17-3z"/><path class="K" d="m605 175-16 2a8 8 0 0 0-3 1c-6 3-7 6-7 6l9 9 19-15z"/><path class="H" d="m550 179 2-3 17-1c5 0 14 4 20 13 5-9 13-12 16-13l2 3-20 17z"/><path class="M" d="M567 193a30 30 0 0 0-2 4c0 2 1 2 8 2h15c2 0 3-1 2-5l19-15a1 1 0 0 0 0-1v-1a1 1 0 0 0-1 0c-8 5-14 10-20 16-8-10-14-13-20-16l-20 1a1 1 0 0 0-2 1 1 1 0 0 0 1 1c13 6 20 13 20 13z"/><path class="V" d="M567 193a30 30 0 0 0-2 4c0 2 1 2 8 2h13c-2 0-2-1 0-5-3-4-9-10-18-14h-21c13 6 20 13 20 13z"/><path class="B C D E g" d="M588 190v3"/><path class="L" d="m506 159-1-1v-1l-2 1-1-2h-13a8 8 0 0 0-3 1 28 28 0 0 0-4 2c-4-4-8-6-11-6h-14l-1 2h-3a1 1 0 0 0-1 1 1 1 0 0 0 1 1 54 54 0 0 1 11 7l1 1 1 1a17 17 0 0 1 3 3s-1 2-2 3v1a1 1 0 0 0 1 0 8 8 0 0 0 2 1h17c1 0 2-1 1-4 5-5 14-10 18-12v1z"/><path class="K" d="m543 129-22 2a10 10 0 0 0-5 2c-8 5-9 8-9 8l15 13 25-21z"/><path class="H" d="m463 134 3-4 24-2c6 0 22 6 32 20 7-14 18-19 21-19l4 4-26 25z"/><path class="G" d="m491 155-1 6c0 2 1 2 10 2h23c3 0 4-1 2-6 7-10 21-19 26-23a1 1 0 0 0 0-1l-2-1a1 1 0 0 0-1 0c-10 7-18 14-26 22a95 95 0 0 0-31-22 3 3 0 0 0-2 0l-29 1a1 1 0 0 0-1 2 1 1 0 0 0 1 1c20 8 31 19 31 19z"/><path class="W" d="m491 155-1 6c0 2 1 2 10 2h19c-2 0-2-1 0-7-5-5-15-14-29-21l-30 1c20 8 31 19 31 19z"/><path class="B C D E g" d="M522 150v2"/><path class="Z" d="M1193 1115a16 16 0 0 0 16-18 112 112 0 0 0-214-21 117 117 0 0 0-112 35 2 2 0 0 0 2 4h308z"/></svg>